{
    "accessors": [{
            "bufferView": 2,
            "byteOffset": 0,
            "componentType": 5126,
            "count": 4490,
            "max": [
                1,
                1,
                1,
                1
            ],
            "min": [
                5.692175545846112e-05,
                0.006584956776350737,
                0,
                1
            ],
            "name": "accessor_color_m0-PolyPaper18_-274894",
            "type": "VEC4"
        },
        {
            "bufferView": 0,
            "byteOffset": 0,
            "componentType": 5123,
            "count": 5886,
            "max": [
                4489
            ],
            "min": [
                0
            ],
            "name": "accessor_indices_0_m0-PolyPaper18_-274894",
            "type": "SCALAR"
        },
        {
            "bufferView": 1,
            "byteOffset": 53880,
            "componentType": 5126,
            "count": 4490,
            "max": [
                0.9992203,
                0.9999737,
                0.9995488
            ],
            "min": [
                -0.9999823,
                -0.9999818,
                -0.9994873
            ],
            "name": "accessor_normal_m0-PolyPaper18_-274894",
            "type": "VEC3"
        },
        {
            "bufferView": 1,
            "byteOffset": 0,
            "componentType": 5126,
            "count": 4490,
            "max": [
                -0.5434836,
                1.020354,
                0.7487673
            ],
            "min": [
                -1.8682,
                -1.715438,
                -0.06366307
            ],
            "name": "accessor_position_m0-PolyPaper18_-274894",
            "type": "VEC3"
        }
    ],
    "asset": {
        "copyright": "Unknown",
        "generator": "glTF 1-to-2 Upgrader for Google Blocks",
        "version": "2.0"
    },
    "bufferViews": [{
            "buffer": 0,
            "byteLength": 11772,
            "byteOffset": 0,
            "name": "ushortBufferView",
            "target": 34963
        },
        {
            "buffer": 0,
            "byteLength": 107760,
            "byteOffset": 11772,
            "byteStride": 12,
            "name": "vec3BufferView",
            "target": 34962
        },
        {
            "buffer": 0,
            "byteLength": 71840,
            "byteOffset": 119532,
            "byteStride": 16,
            "name": "vec4BufferView",
            "target": 34962
        }
    ],
    "buffers": [{
        "byteLength": 191372,
        "name": "model",
        "uri": "scout.bin"
    }],
    "materials": [{
            "alphaMode": "OPAQUE",
            "doubleSided": false,
            "name": "BlocksPaper",
            "pbrMetallicRoughness": {
                "baseColorFactor": [
                    1,
                    1,
                    1,
                    1
                ],
                "metallicFactor": 0,
                "roughnessFactor": 0.6
            }
        },
        {
            "alphaMode": "BLEND",
            "doubleSided": false,
            "name": "BlocksGlass",
            "pbrMetallicRoughness": {
                "baseColorFactor": [
                    0.2,
                    0.2,
                    1,
                    0.3
                ],
                "metallicFactor": 1,
                "roughnessFactor": 0.4
            }
        },
        {
            "alphaMode": "OPAQUE",
            "doubleSided": true,
            "name": "BlocksGem",
            "pbrMetallicRoughness": {
                "baseColorFactor": [
                    1,
                    0.4,
                    1,
                    1
                ],
                "metallicFactor": 0,
                "roughnessFactor": 0.1
            }
        }
    ],
    "meshes": [{
        "name": "mesh_m0-PolyPaper18_-274894",
        "primitives": [{
            "attributes": {
                "COLOR_0": 0,
                "NORMAL": 2,
                "POSITION": 3
            },
            "indices": 1,
            "material": 0,
            "mode": 4
        }]
    }],
    "nodes": [{
        "matrix": [
            1,
            0,
            0,
            0,
            0,
            1,
            0,
            0,
            0,
            0,
            1,
            0,
            0,
            0,
            0,
            1
        ],
        "mesh": 0,
        "name": "node_MeshObject-1803805056-PolyPaper18"
    }],
    "scene": 0,
    "scenes": [{
        "extras": {},
        "name": "defaultScene",
        "nodes": [
            0
        ]
    }]
}