{
  "asset": {
    "version": "2.0",
    "generator": "THREE.GLTFExporter"
  },
  "scenes": [
    {
      "nodes": [
        4
      ],
      "name": "Scene"
    }
  ],
  "scene": 0,
  "nodes": [
    {
      "name": "buffer-0-mesh-0_0",
      "mesh": 0
    },
    {
      "name": "buffer-0-mesh-0_1",
      "mesh": 1
    },
    {
      "name": "buffer-0-mesh-0_2",
      "mesh": 2
    },
    {
      "name": "node-0",
      "children": [
        0,
        1,
        2
      ]
    },
    {
      "matrix": [
        1.5,
        0,
        0,
        0,
        0,
        1.5,
        0,
        0,
        0,
        0,
        3,
        0,
        0,
        0,
        0,
        1
      ],
      "name": "mountain.gltf",
      "children": [
        3
      ]
    }
  ],
  "bufferViews": [
    {
      "buffer": 0,
      "byteOffset": 0,
      "byteLength": 4788,
      "target": 34962,
      "byteStride": 12
    },
    {
      "buffer": 0,
      "byteOffset": 4788,
      "byteLength": 4788,
      "target": 34962,
      "byteStride": 12
    },
    {
      "buffer": 0,
      "byteOffset": 9576,
      "byteLength": 800,
      "target": 34963
    },
    {
      "buffer": 0,
      "byteOffset": 10376,
      "byteLength": 1044,
      "target": 34962,
      "byteStride": 12
    },
    {
      "buffer": 0,
      "byteOffset": 11420,
      "byteLength": 1044,
      "target": 34962,
      "byteStride": 12
    },
    {
      "buffer": 0,
      "byteOffset": 12464,
      "byteLength": 176,
      "target": 34963
    },
    {
      "buffer": 0,
      "byteOffset": 12640,
      "byteLength": 1296,
      "target": 34962,
      "byteStride": 12
    },
    {
      "buffer": 0,
      "byteOffset": 13936,
      "byteLength": 1296,
      "target": 34962,
      "byteStride": 12
    },
    {
      "buffer": 0,
      "byteOffset": 15232,
      "byteLength": 216,
      "target": 34963
    }
  ],
  "buffers": [
    {
      "byteLength": 15448,
      "uri": "data:application/octet-stream;base64,"
    }
  ],
  "accessors": [
    {
      "bufferView": 0,
      "componentType": 5126,
      "count": 399,
      "max": [
        4.974780082702637,
        7.00765323638916,
        2.8640339374542236
      ],
      "min": [
        -4.5714898109436035,
        0.022693999111652374,
        -1.7652209997177124
      ],
      "type": "VEC3"
    },
    {
      "bufferView": 1,
      "componentType": 5126,
      "count": 399,
      "max": [
        0.9165999889373779,
        0.9286999702453613,
        0.9876000285148621
      ],
      "min": [
        -0.9790999889373779,
        0.006500000134110451,
        -0.9990000128746033
      ],
      "type": "VEC3"
    },
    {
      "bufferView": 2,
      "componentType": 5123,
      "count": 399,
      "max": [
        398
      ],
      "min": [
        0
      ],
      "type": "SCALAR"
    },
    {
      "bufferView": 3,
      "componentType": 5126,
      "count": 87,
      "max": [
        0.7726939916610718,
        8.41242790222168,
        0.7503330111503601
      ],
      "min": [
        -2.0391809940338135,
        5.985989093780518,
        -0.6992470026016235
      ],
      "type": "VEC3"
    },
    {
      "bufferView": 4,
      "componentType": 5126,
      "count": 87,
      "max": [
        0.8634999990463257,
        0.8126000165939331,
        0.9426000118255615
      ],
      "min": [
        -0.9006999731063843,
        0.04360000044107437,
        -0.9991000294685364
      ],
      "type": "VEC3"
    },
    {
      "bufferView": 5,
      "componentType": 5123,
      "count": 87,
      "max": [
        86
      ],
      "min": [
        0
      ],
      "type": "SCALAR"
    },
    {
      "bufferView": 6,
      "componentType": 5126,
      "count": 108,
      "max": [
        5.664337158203125,
        1.8469500541687012,
        2.8640339374542236
      ],
      "min": [
        -5.196366786956787,
        0.022693999111652374,
        -1.8969420194625854
      ],
      "type": "VEC3"
    },
    {
      "bufferView": 7,
      "componentType": 5126,
      "count": 108,
      "max": [
        0.6970999836921692,
        0.8202999830245972,
        0.9520999789237976
      ],
      "min": [
        -0.6413999795913696,
        -1,
        -0.9911999702453613
      ],
      "type": "VEC3"
    },
    {
      "bufferView": 8,
      "componentType": 5123,
      "count": 108,
      "max": [
        107
      ],
      "min": [
        0
      ],
      "type": "SCALAR"
    }
  ],
  "materials": [
    {
      "pbrMetallicRoughness": {
        "baseColorFactor": [
          0.270588,
          0.352941,
          0.392157,
          1
        ],
        "metallicFactor": 0,
        "roughnessFactor": 0.7448017359246658
      },
      "doubleSided": true,
      "name": "455A64"
    },
    {
      "pbrMetallicRoughness": {
        "metallicFactor": 0,
        "roughnessFactor": 0.7448017359246658
      },
      "doubleSided": true,
      "name": "FFFFFF"
    },
    {
      "pbrMetallicRoughness": {
        "baseColorFactor": [
          0.545098,
          0.764706,
          0.290196,
          1
        ],
        "metallicFactor": 0,
        "roughnessFactor": 0.7448017359246658
      },
      "doubleSided": true,
      "name": "8BC34A"
    }
  ],
  "meshes": [
    {
      "primitives": [
        {
          "mode": 4,
          "attributes": {
            "POSITION": 0,
            "NORMAL": 1
          },
          "indices": 2,
          "material": 0
        }
      ]
    },
    {
      "primitives": [
        {
          "mode": 4,
          "attributes": {
            "POSITION": 3,
            "NORMAL": 4
          },
          "indices": 5,
          "material": 1
        }
      ]
    },
    {
      "primitives": [
        {
          "mode": 4,
          "attributes": {
            "POSITION": 6,
            "NORMAL": 7
          },
          "indices": 8,
          "material": 2
        }
      ]
    }
  ]
}