{
    "accessors": [{
            "bufferView": 0,
            "byteOffset": 0,
            "componentType": 5123,
            "count": 399,
            "max": [
                398.0
            ],
            "min": [
                0.0
            ],
            "name": "buffer-0-accessor-indices-buffer-0-mesh-0",
            "type": "SCALAR"
        },
        {
            "bufferView": 2,
            "byteOffset": 0,
            "componentType": 5126,
            "count": 399,
            "max": [
                4.974780082702637,
                7.00765323638916,
                2.8640339374542236
            ],
            "min": [
                -4.5714898109436035,
                0.0,
                -1.7652209997177124
            ],
            "name": "buffer-0-accessor-position-buffer-0-mesh-0",
            "type": "VEC3"
        },
        {
            "bufferView": 2,
            "byteOffset": 4788,
            "componentType": 5126,
            "count": 399,
            "max": [
                0.9165999889373779,
                0.9286999702453613,
                0.9876000285148621
            ],
            "min": [
                -0.9790999889373779,
                0.0,
                -0.9990000128746033
            ],
            "name": "buffer-0-accessor-normal-buffer-0-mesh-0",
            "type": "VEC3"
        },
        {
            "bufferView": 1,
            "byteOffset": 0,
            "componentType": 5126,
            "count": 0,
            "max": [
                0.0,
                0.0
            ],
            "min": [
                0.0,
                0.0
            ],
            "name": "buffer-0-accessor-texcoord-buffer-0-mesh-0",
            "type": "VEC2"
        },
        {
            "bufferView": 3,
            "byteOffset": 0,
            "componentType": 5126,
            "count": 0,
            "max": [
                0.0,
                0.0,
                0.0,
                0.0
            ],
            "min": [
                0.0,
                0.0,
                0.0,
                0.0
            ],
            "name": "buffer-0-accessor-color-buffer-0-mesh-0",
            "type": "VEC4"
        },
        {
            "bufferView": 0,
            "byteOffset": 798,
            "componentType": 5123,
            "count": 87,
            "max": [
                86.0
            ],
            "min": [
                0.0
            ],
            "name": "buffer-0-accessor-indices-buffer-0-mesh-0",
            "type": "SCALAR"
        },
        {
            "bufferView": 2,
            "byteOffset": 9576,
            "componentType": 5126,
            "count": 87,
            "max": [
                0.7726939916610718,
                8.41242790222168,
                0.7503330111503601
            ],
            "min": [
                -2.0391809940338135,
                0.0,
                -0.6992470026016235
            ],
            "name": "buffer-0-accessor-position-buffer-0-mesh-0",
            "type": "VEC3"
        },
        {
            "bufferView": 2,
            "byteOffset": 10620,
            "componentType": 5126,
            "count": 87,
            "max": [
                0.8634999990463257,
                0.8126000165939331,
                0.9426000118255615
            ],
            "min": [
                -0.9006999731063843,
                0.0,
                -0.9991000294685364
            ],
            "name": "buffer-0-accessor-normal-buffer-0-mesh-0",
            "type": "VEC3"
        },
        {
            "bufferView": 1,
            "byteOffset": 0,
            "componentType": 5126,
            "count": 0,
            "max": [
                0.0,
                0.0
            ],
            "min": [
                0.0,
                0.0
            ],
            "name": "buffer-0-accessor-texcoord-buffer-0-mesh-0",
            "type": "VEC2"
        },
        {
            "bufferView": 3,
            "byteOffset": 0,
            "componentType": 5126,
            "count": 0,
            "max": [
                0.0,
                0.0,
                0.0,
                0.0
            ],
            "min": [
                0.0,
                0.0,
                0.0,
                0.0
            ],
            "name": "buffer-0-accessor-color-buffer-0-mesh-0",
            "type": "VEC4"
        },
        {
            "bufferView": 0,
            "byteOffset": 972,
            "componentType": 5123,
            "count": 108,
            "max": [
                107.0
            ],
            "min": [
                0.0
            ],
            "name": "buffer-0-accessor-indices-buffer-0-mesh-0",
            "type": "SCALAR"
        },
        {
            "bufferView": 2,
            "byteOffset": 11664,
            "componentType": 5126,
            "count": 108,
            "max": [
                5.664337158203125,
                1.8469500541687012,
                2.8640339374542236
            ],
            "min": [
                -5.196366786956787,
                0.0,
                -1.8969420194625854
            ],
            "name": "buffer-0-accessor-position-buffer-0-mesh-0",
            "type": "VEC3"
        },
        {
            "bufferView": 2,
            "byteOffset": 12960,
            "componentType": 5126,
            "count": 108,
            "max": [
                0.6970999836921692,
                0.8202999830245972,
                0.9520999789237976
            ],
            "min": [
                -0.6413999795913696,
                -1.0,
                -0.9911999702453613
            ],
            "name": "buffer-0-accessor-normal-buffer-0-mesh-0",
            "type": "VEC3"
        },
        {
            "bufferView": 1,
            "byteOffset": 0,
            "componentType": 5126,
            "count": 0,
            "max": [
                0.0,
                0.0
            ],
            "min": [
                0.0,
                0.0
            ],
            "name": "buffer-0-accessor-texcoord-buffer-0-mesh-0",
            "type": "VEC2"
        },
        {
            "bufferView": 3,
            "byteOffset": 0,
            "componentType": 5126,
            "count": 0,
            "max": [
                0.0,
                0.0,
                0.0,
                0.0
            ],
            "min": [
                0.0,
                0.0,
                0.0,
                0.0
            ],
            "name": "buffer-0-accessor-color-buffer-0-mesh-0",
            "type": "VEC4"
        }
    ],
    "asset": {
        "generator": "Obj2GltfConverter",
        "version": "2.0"
    },
    "bufferViews": [{
            "buffer": 0,
            "byteLength": 1188,
            "byteOffset": 0,
            "byteStride": 0,
            "name": "buffer-0-bufferview-ushort",
            "target": 34963
        },
        {
            "buffer": 0,
            "byteLength": 0,
            "byteOffset": 1192,
            "byteStride": 8,
            "name": "buffer-0-bufferview-vec2",
            "target": 34962
        },
        {
            "buffer": 0,
            "byteLength": 14256,
            "byteOffset": 1200,
            "byteStride": 12,
            "name": "buffer-0-bufferview-vec3",
            "target": 34962
        },
        {
            "buffer": 0,
            "byteLength": 0,
            "byteOffset": 15456,
            "byteStride": 16,
            "name": "buffer-0-bufferview-vec4",
            "target": 34962
        }
    ],
    "buffers": [{
        "byteLength": 15456,
        "name": "buffer-0",
        "uri": "mountain.bin"
    }],
    "materials": [{
            "alphaMode": "OPAQUE",
            "doubleSided": true,
            "name": "455A64",
            "pbrMetallicRoughness": {
                "baseColorFactor": [
                    0.270588,
                    0.352941,
                    0.392157,
                    1.0
                ],
                "metallicFactor": 0.0,
                "roughnessFactor": 0.7448017359246658
            }
        },
        {
            "alphaMode": "OPAQUE",
            "doubleSided": true,
            "name": "FFFFFF",
            "pbrMetallicRoughness": {
                "baseColorFactor": [
                    1.0,
                    1.0,
                    1.0,
                    1.0
                ],
                "metallicFactor": 0.0,
                "roughnessFactor": 0.7448017359246658
            }
        },
        {
            "alphaMode": "OPAQUE",
            "doubleSided": true,
            "name": "8BC34A",
            "pbrMetallicRoughness": {
                "baseColorFactor": [
                    0.545098,
                    0.764706,
                    0.290196,
                    1.0
                ],
                "metallicFactor": 0.0,
                "roughnessFactor": 0.7448017359246658
            }
        }
    ],
    "meshes": [{
        "name": "buffer-0-mesh-0",
        "primitives": [{
                "attributes": {
                    "POSITION": 1,
                    "NORMAL": 2,
                    "TEXCOORD_0": 3
                },
                "indices": 0,
                "material": 0,
                "mode": 4
            },
            {
                "attributes": {
                    "POSITION": 6,
                    "NORMAL": 7,
                    "TEXCOORD_0": 8
                },
                "indices": 5,
                "material": 1,
                "mode": 4
            },
            {
                "attributes": {
                    "POSITION": 11,
                    "NORMAL": 12,
                    "TEXCOORD_0": 13
                },
                "indices": 10,
                "material": 2,
                "mode": 4
            }
        ]
    }],
    "nodes": [{
        "mesh": 0,
        "name": "node-0"
    }],
    "scenes": [{
        "name": "scene-0",
        "nodes": [
            0
        ]
    }]
}