{
    "accessors": [{
            "bufferView": 0,
            "componentType": 5123,
            "count": 1443,
            "max": [1442],
            "min": [0],
            "name": "buffer-0-accessor-indices-buffer-0-mesh-0",
            "type": "SCALAR"
        },
        {
            "bufferView": 2,
            "componentType": 5126,
            "count": 1443,
            "max": [0.7391759753227234, 0.982446014881134, 0.7320460081100464],
            "min": [-0.6621609926223755, -0.5865470170974731, -0.7483829855918884],
            "name": "buffer-0-accessor-position-buffer-0-mesh-0",
            "type": "VEC3"
        },
        {
            "bufferView": 2,
            "byteOffset": 17316,
            "componentType": 5126,
            "count": 1443,
            "max": [0.9969000220298767, 0.9980999827384949, 0.998199999332428],
            "min": [-0.9997000098228455, -0.9983000159263611, -0.9972000122070312],
            "name": "buffer-0-accessor-normal-buffer-0-mesh-0",
            "type": "VEC3"
        },
        {
            "bufferView": 1,
            "componentType": 5126,
            "count": 1443,
            "max": [0.988099992275238, 0],
            "min": [0, -0.988099992275238],
            "name": "buffer-0-accessor-texcoord-buffer-0-mesh-0",
            "type": "VEC2"
        },
        {
            "bufferView": 3,
            "componentType": 5126,
            "count": 0,
            "max": [0, 0, 0, 0],
            "min": [0, 0, 0, 0],
            "name": "buffer-0-accessor-color-buffer-0-mesh-0",
            "type": "VEC4"
        }
    ],
    "asset": {
        "generator": "Obj2GltfConverter",
        "version": "2.0"
    },
    "bufferViews": [{
            "buffer": 0,
            "byteLength": 2886,
            "byteStride": 0,
            "name": "buffer-0-bufferview-ushort",
            "target": 34963
        },
        {
            "buffer": 0,
            "byteLength": 11544,
            "byteOffset": 2888,
            "byteStride": 8,
            "name": "buffer-0-bufferview-vec2",
            "target": 34962
        },
        {
            "buffer": 0,
            "byteLength": 34632,
            "byteOffset": 14436,
            "byteStride": 12,
            "name": "buffer-0-bufferview-vec3",
            "target": 34962
        },
        {
            "buffer": 0,
            "byteLength": 1,
            "name": "buffer-0-bufferview-vec4"
        }
    ],
    "buffers": [{
        "byteLength": 49072,
        "name": "buffer-0",
        "uri": "copper.bin"
    }],
    "images": [{
        "mimeType": "image/png",
        "name": "None-image",
        "uri": "copper.png"
    }],
    "materials": [{
        "doubleSided": true,
        "name": "None",
        "pbrMetallicRoughness": {
            "baseColorFactor": [0.8, 0.8, 0.8, 1],
            "baseColorTexture": {
                "index": 0
            },
            "metallicFactor": 0
        }
    }],
    "meshes": [{
        "name": "buffer-0-mesh-0",
        "primitives": [{
            "attributes": {
                "NORMAL": 2,
                "POSITION": 1,
                "TEXCOORD_0": 3
            },
            "indices": 0,
            "material": 0
        }]
    }],
    "nodes": [{
        "mesh": 0,
        "name": "node-0"
    }],
    "samplers": [{
        "name": "None-sampler",
        "wrapS": 10497,
        "wrapT": 10497
    }],
    "scenes": [{
        "name": "scene-0",
        "nodes": [0]
    }],
    "textures": [{
        "name": "None-texture",
        "sampler": 0,
        "source": 0
    }]
}