{
    "accessors": [{
            "bufferView": 0,
            "byteOffset": 0,
            "componentType": 5123,
            "count": 120,
            "max": [
                119.0
            ],
            "min": [
                0.0
            ],
            "name": "buffer-0-accessor-indices-buffer-0-mesh-0",
            "type": "SCALAR"
        },
        {
            "bufferView": 2,
            "byteOffset": 0,
            "componentType": 5126,
            "count": 120,
            "max": [
                88.46029663085938,
                49.29029846191406,
                0.0
            ],
            "min": [
                -88.46029663085938,
                0.0,
                -165.9320068359375
            ],
            "name": "buffer-0-accessor-position-buffer-0-mesh-0",
            "type": "VEC3"
        },
        {
            "bufferView": 2,
            "byteOffset": 1440,
            "componentType": 5126,
            "count": 120,
            "max": [
                0.8506510257720947,
                0.8506510257720947,
                0.8506510257720947
            ],
            "min": [
                -0.8506510257720947,
                -0.8506510257720947,
                -0.8506510257720947
            ],
            "name": "buffer-0-accessor-normal-buffer-0-mesh-0",
            "type": "VEC3"
        },
        {
            "bufferView": 1,
            "byteOffset": 0,
            "componentType": 5126,
            "count": 120,
            "max": [
                1.0,
                0.0
            ],
            "min": [
                0.0,
                -1.0
            ],
            "name": "buffer-0-accessor-texcoord-buffer-0-mesh-0",
            "type": "VEC2"
        },
        {
            "bufferView": 3,
            "byteOffset": 0,
            "componentType": 5126,
            "count": 0,
            "max": [
                0.0,
                0.0,
                0.0,
                0.0
            ],
            "min": [
                0.0,
                0.0,
                0.0,
                0.0
            ],
            "name": "buffer-0-accessor-color-buffer-0-mesh-0",
            "type": "VEC4"
        },
        {
            "bufferView": 0,
            "byteOffset": 240,
            "componentType": 5123,
            "count": 3576,
            "max": [
                3575.0
            ],
            "min": [
                0.0
            ],
            "name": "buffer-0-accessor-indices-buffer-0-mesh-0",
            "type": "SCALAR"
        },
        {
            "bufferView": 2,
            "byteOffset": 2880,
            "componentType": 5126,
            "count": 3576,
            "max": [
                389.760009765625,
                105.25900268554688,
                269.7409973144531
            ],
            "min": [
                -389.760009765625,
                -168.18699645996094,
                -326.31298828125
            ],
            "name": "buffer-0-accessor-position-buffer-0-mesh-0",
            "type": "VEC3"
        },
        {
            "bufferView": 2,
            "byteOffset": 45792,
            "componentType": 5126,
            "count": 3576,
            "max": [
                1.0,
                1.0,
                0.9999909996986389
            ],
            "min": [
                -1.0,
                -1.0,
                -1.0
            ],
            "name": "buffer-0-accessor-normal-buffer-0-mesh-0",
            "type": "VEC3"
        },
        {
            "bufferView": 1,
            "byteOffset": 960,
            "componentType": 5126,
            "count": 3576,
            "max": [
                1.0,
                0.0
            ],
            "min": [
                0.0,
                -1.0
            ],
            "name": "buffer-0-accessor-texcoord-buffer-0-mesh-0",
            "type": "VEC2"
        },
        {
            "bufferView": 3,
            "byteOffset": 0,
            "componentType": 5126,
            "count": 0,
            "max": [
                0.0,
                0.0,
                0.0,
                0.0
            ],
            "min": [
                0.0,
                0.0,
                0.0,
                0.0
            ],
            "name": "buffer-0-accessor-color-buffer-0-mesh-0",
            "type": "VEC4"
        },
        {
            "bufferView": 0,
            "byteOffset": 7392,
            "componentType": 5123,
            "count": 240,
            "max": [
                239.0
            ],
            "min": [
                0.0
            ],
            "name": "buffer-0-accessor-indices-buffer-0-mesh-0",
            "type": "SCALAR"
        },
        {
            "bufferView": 2,
            "byteOffset": 88704,
            "componentType": 5126,
            "count": 240,
            "max": [
                151.64100646972656,
                4.210720062255859,
                0.0
            ],
            "min": [
                -151.64100646972656,
                -58.17169952392578,
                -332.1730041503906
            ],
            "name": "buffer-0-accessor-position-buffer-0-mesh-0",
            "type": "VEC3"
        },
        {
            "bufferView": 2,
            "byteOffset": 91584,
            "componentType": 5126,
            "count": 240,
            "max": [
                0.9849039912223816,
                0.8837249875068665,
                0.9963709712028503
            ],
            "min": [
                -0.9849039912223816,
                -0.9013410210609436,
                -0.9993510246276855
            ],
            "name": "buffer-0-accessor-normal-buffer-0-mesh-0",
            "type": "VEC3"
        },
        {
            "bufferView": 1,
            "byteOffset": 29568,
            "componentType": 5126,
            "count": 240,
            "max": [
                1.0,
                0.0
            ],
            "min": [
                0.0,
                -1.0
            ],
            "name": "buffer-0-accessor-texcoord-buffer-0-mesh-0",
            "type": "VEC2"
        },
        {
            "bufferView": 3,
            "byteOffset": 0,
            "componentType": 5126,
            "count": 0,
            "max": [
                0.0,
                0.0,
                0.0,
                0.0
            ],
            "min": [
                0.0,
                0.0,
                0.0,
                0.0
            ],
            "name": "buffer-0-accessor-color-buffer-0-mesh-0",
            "type": "VEC4"
        },
        {
            "bufferView": 0,
            "byteOffset": 7872,
            "componentType": 5123,
            "count": 84,
            "max": [
                83.0
            ],
            "min": [
                0.0
            ],
            "name": "buffer-0-accessor-indices-buffer-0-mesh-0",
            "type": "SCALAR"
        },
        {
            "bufferView": 2,
            "byteOffset": 94464,
            "componentType": 5126,
            "count": 84,
            "max": [
                227.18099975585938,
                10.578800201416016,
                194.7220001220703
            ],
            "min": [
                -227.18099975585938,
                -100.41699981689453,
                -155.8459930419922
            ],
            "name": "buffer-0-accessor-position-buffer-0-mesh-0",
            "type": "VEC3"
        },
        {
            "bufferView": 2,
            "byteOffset": 95472,
            "componentType": 5126,
            "count": 84,
            "max": [
                0.5074800252914429,
                0.9999070167541504,
                0.9999909996986389
            ],
            "min": [
                -0.5074800252914429,
                -0.004188740160316229,
                -0.7091090083122253
            ],
            "name": "buffer-0-accessor-normal-buffer-0-mesh-0",
            "type": "VEC3"
        },
        {
            "bufferView": 1,
            "byteOffset": 31488,
            "componentType": 5126,
            "count": 84,
            "max": [
                1.0,
                0.0
            ],
            "min": [
                0.0,
                -1.0
            ],
            "name": "buffer-0-accessor-texcoord-buffer-0-mesh-0",
            "type": "VEC2"
        },
        {
            "bufferView": 3,
            "byteOffset": 0,
            "componentType": 5126,
            "count": 0,
            "max": [
                0.0,
                0.0,
                0.0,
                0.0
            ],
            "min": [
                0.0,
                0.0,
                0.0,
                0.0
            ],
            "name": "buffer-0-accessor-color-buffer-0-mesh-0",
            "type": "VEC4"
        }
    ],
    "asset": {
        "generator": "Obj2GltfConverter",
        "version": "2.0"
    },
    "bufferViews": [{
            "buffer": 0,
            "byteLength": 8040,
            "byteOffset": 0,
            "byteStride": 0,
            "name": "buffer-0-bufferview-ushort",
            "target": 34963
        },
        {
            "buffer": 0,
            "byteLength": 32160,
            "byteOffset": 8040,
            "byteStride": 8,
            "name": "buffer-0-bufferview-vec2",
            "target": 34962
        },
        {
            "buffer": 0,
            "byteLength": 96480,
            "byteOffset": 40200,
            "byteStride": 12,
            "name": "buffer-0-bufferview-vec3",
            "target": 34962
        },
        {
            "buffer": 0,
            "byteLength": 0,
            "byteOffset": 136688,
            "byteStride": 16,
            "name": "buffer-0-bufferview-vec4",
            "target": 34962
        }
    ],
    "buffers": [{
        "byteLength": 136688,
        "name": "buffer-0",
        "uri": "crab.bin"
    }],
    "materials": [{
            "alphaMode": "OPAQUE",
            "doubleSided": true,
            "name": "Black",
            "pbrMetallicRoughness": {
                "baseColorFactor": [
                    0.11,
                    0.03498,
                    0.0077,
                    1.0
                ],
                "metallicFactor": 0.0,
                "roughnessFactor": 0.9699476628648295
            }
        },
        {
            "alphaMode": "OPAQUE",
            "doubleSided": true,
            "name": "Red",
            "pbrMetallicRoughness": {
                "baseColorFactor": [
                    0.73,
                    0.23214,
                    0.0511,
                    1.0
                ],
                "metallicFactor": 0.0,
                "roughnessFactor": 0.9699476628648295
            }
        },
        {
            "alphaMode": "OPAQUE",
            "doubleSided": true,
            "name": "Dark_Red",
            "pbrMetallicRoughness": {
                "baseColorFactor": [
                    0.29,
                    0.09222,
                    0.0203,
                    1.0
                ],
                "metallicFactor": 0.0,
                "roughnessFactor": 0.9699476628648295
            }
        },
        {
            "alphaMode": "OPAQUE",
            "doubleSided": true,
            "name": "White",
            "pbrMetallicRoughness": {
                "baseColorFactor": [
                    0.85,
                    0.731,
                    0.612,
                    1.0
                ],
                "metallicFactor": 0.0,
                "roughnessFactor": 0.9699476628648295
            }
        }
    ],
    "meshes": [{
        "name": "buffer-0-mesh-0",
        "primitives": [{
                "attributes": {
                    "POSITION": 1,
                    "NORMAL": 2,
                    "TEXCOORD_0": 3
                },
                "indices": 0,
                "material": 0,
                "mode": 4
            },
            {
                "attributes": {
                    "POSITION": 6,
                    "NORMAL": 7,
                    "TEXCOORD_0": 8
                },
                "indices": 5,
                "material": 1,
                "mode": 4
            },
            {
                "attributes": {
                    "POSITION": 11,
                    "NORMAL": 12,
                    "TEXCOORD_0": 13
                },
                "indices": 10,
                "material": 2,
                "mode": 4
            },
            {
                "attributes": {
                    "POSITION": 16,
                    "NORMAL": 17,
                    "TEXCOORD_0": 18
                },
                "indices": 15,
                "material": 3,
                "mode": 4
            }
        ]
    }],
    "nodes": [{
        "mesh": 0,
        "name": "node-0"
    }],
    "scenes": [{
        "name": "scene-0",
        "nodes": [
            0
        ]
    }]
}