{
    "accessors": [{
            "bufferView": 0,
            "byteOffset": 0,
            "componentType": 5123,
            "count": 585,
            "max": [
                584.0
            ],
            "min": [
                0.0
            ],
            "name": "buffer-0-accessor-indices-buffer-0-mesh-0",
            "type": "SCALAR"
        },
        {
            "bufferView": 2,
            "byteOffset": 0,
            "componentType": 5126,
            "count": 585,
            "max": [
                1.0728859901428223,
                0.6503530144691467,
                0.6255769729614258
            ],
            "min": [
                -0.9339140057563782,
                -0.3710879981517792,
                -0.6624869704246521
            ],
            "name": "buffer-0-accessor-position-buffer-0-mesh-0",
            "type": "VEC3"
        },
        {
            "bufferView": 2,
            "byteOffset": 7020,
            "componentType": 5126,
            "count": 585,
            "max": [
                0.9656999707221985,
                0.9979000091552734,
                0.9308000206947327
            ],
            "min": [
                -0.9715999960899353,
                -0.6927000284194946,
                -0.9868000149726868
            ],
            "name": "buffer-0-accessor-normal-buffer-0-mesh-0",
            "type": "VEC3"
        },
        {
            "bufferView": 1,
            "byteOffset": 0,
            "componentType": 5126,
            "count": 585,
            "max": [
                0.9776999950408936,
                0.0
            ],
            "min": [
                0.0,
                -0.9776999950408936
            ],
            "name": "buffer-0-accessor-texcoord-buffer-0-mesh-0",
            "type": "VEC2"
        },
        {
            "bufferView": 3,
            "byteOffset": 0,
            "componentType": 5126,
            "count": 0,
            "max": [
                0.0,
                0.0,
                0.0,
                0.0
            ],
            "min": [
                0.0,
                0.0,
                0.0,
                0.0
            ],
            "name": "buffer-0-accessor-color-buffer-0-mesh-0",
            "type": "VEC4"
        }
    ],
    "asset": {
        "generator": "Obj2GltfConverter",
        "version": "2.0"
    },
    "bufferViews": [{
            "buffer": 0,
            "byteLength": 1170,
            "byteOffset": 0,
            "byteStride": 0,
            "name": "buffer-0-bufferview-ushort",
            "target": 34963
        },
        {
            "buffer": 0,
            "byteLength": 4680,
            "byteOffset": 1176,
            "byteStride": 8,
            "name": "buffer-0-bufferview-vec2",
            "target": 34962
        },
        {
            "buffer": 0,
            "byteLength": 14040,
            "byteOffset": 5856,
            "byteStride": 12,
            "name": "buffer-0-bufferview-vec3",
            "target": 34962
        },
        {
            "buffer": 0,
            "byteLength": 0,
            "byteOffset": 19904,
            "byteStride": 16,
            "name": "buffer-0-bufferview-vec4",
            "target": 34962
        }
    ],
    "buffers": [{
        "byteLength": 19904,
        "name": "buffer-0",
        "uri": "stone.bin"
    }],
    "images": [{
        "mimeType": "image/png",
        "name": "None-image",
        "uri": "stone.png"
    }],
    "materials": [{
        "alphaMode": "OPAQUE",
        "doubleSided": true,
        "name": "None",
        "pbrMetallicRoughness": {
            "baseColorFactor": [
                0.8,
                0.8,
                0.8,
                1.0
            ],
            "baseColorTexture": {
                "index": 0,
                "texCoord": 0
            },
            "metallicFactor": 0.0,
            "roughnessFactor": 1.0
        }
    }],
    "meshes": [{
        "name": "buffer-0-mesh-0",
        "primitives": [{
            "attributes": {
                "POSITION": 1,
                "NORMAL": 2,
                "TEXCOORD_0": 3
            },
            "indices": 0,
            "material": 0,
            "mode": 4
        }]
    }],
    "nodes": [{
        "mesh": 0,
        "name": "node-0"
    }],
    "samplers": [{
        "name": "None-sampler",
        "wrapS": 10497,
        "wrapT": 10497
    }],
    "scenes": [{
        "name": "scene-0",
        "nodes": [
            0
        ]
    }],
    "textures": [{
        "name": "None-texture",
        "sampler": 0,
        "source": 0
    }]
}