{
    "accessors": [{
            "bufferView": 2,
            "byteOffset": 0,
            "componentType": 5126,
            "count": 502,
            "max": [
                0.006584956776350737,
                0.006584956776350737,
                0.006584956776350737,
                1
            ],
            "min": [
                0.006584956776350737,
                0.006584956776350737,
                0.006584956776350737,
                1
            ],
            "name": "accessor_color_m0-PolyPaper23_-32570",
            "type": "VEC4"
        },
        {
            "bufferView": 0,
            "byteOffset": 0,
            "componentType": 5123,
            "count": 570,
            "max": [
                501
            ],
            "min": [
                0
            ],
            "name": "accessor_indices_0_m0-PolyPaper23_-32570",
            "type": "SCALAR"
        },
        {
            "bufferView": 1,
            "byteOffset": 6024,
            "componentType": 5126,
            "count": 502,
            "max": [
                0.9712827000000001,
                0.9961217,
                0.9954279
            ],
            "min": [
                -0.9712827000000001,
                -0.9961216000000001,
                -0.9932408
            ],
            "name": "accessor_normal_m0-PolyPaper23_-32570",
            "type": "VEC3"
        },
        {
            "bufferView": 1,
            "byteOffset": 0,
            "componentType": 5126,
            "count": 502,
            "max": [
                0.8579183,
                1.490767,
                -0.6864502
            ],
            "min": [
                0.7677614,
                1.404284,
                -0.7798034
            ],
            "name": "accessor_position_m0-PolyPaper23_-32570",
            "type": "VEC3"
        }
    ],
    "asset": {
        "copyright": "Unknown",
        "generator": "glTF 1-to-2 Upgrader for Google Blocks",
        "version": "2.0"
    },
    "bufferViews": [{
            "buffer": 0,
            "byteLength": 1140,
            "byteOffset": 0,
            "name": "ushortBufferView",
            "target": 34963
        },
        {
            "buffer": 0,
            "byteLength": 12048,
            "byteOffset": 1140,
            "byteStride": 12,
            "name": "vec3BufferView",
            "target": 34962
        },
        {
            "buffer": 0,
            "byteLength": 8032,
            "byteOffset": 13188,
            "byteStride": 16,
            "name": "vec4BufferView",
            "target": 34962
        }
    ],
    "buffers": [{
        "byteLength": 21220,
        "name": "model",
        "uri": "coal.bin"
    }],
    "materials": [{
            "alphaMode": "OPAQUE",
            "doubleSided": false,
            "name": "BlocksPaper",
            "pbrMetallicRoughness": {
                "baseColorFactor": [
                    1,
                    1,
                    1,
                    1
                ],
                "metallicFactor": 0,
                "roughnessFactor": 0.6
            }
        },
        {
            "alphaMode": "BLEND",
            "doubleSided": false,
            "name": "BlocksGlass",
            "pbrMetallicRoughness": {
                "baseColorFactor": [
                    0.2,
                    0.2,
                    1,
                    0.3
                ],
                "metallicFactor": 1,
                "roughnessFactor": 0.4
            }
        },
        {
            "alphaMode": "OPAQUE",
            "doubleSided": true,
            "name": "BlocksGem",
            "pbrMetallicRoughness": {
                "baseColorFactor": [
                    1,
                    0.4,
                    1,
                    1
                ],
                "metallicFactor": 0,
                "roughnessFactor": 0.1
            }
        }
    ],
    "meshes": [{
        "name": "mesh_m0-PolyPaper23_-32570",
        "primitives": [{
            "attributes": {
                "COLOR_0": 0,
                "NORMAL": 2,
                "POSITION": 3
            },
            "indices": 1,
            "material": 0,
            "mode": 4
        }]
    }],
    "nodes": [{
        "matrix": [
            1,
            0,
            0,
            0,
            0,
            1,
            0,
            0,
            0,
            0,
            1,
            0,
            0,
            0,
            0,
            1
        ],
        "mesh": 0,
        "name": "node_MeshObject-1141549376-PolyPaper23"
    }],
    "scene": 0,
    "scenes": [{
        "extras": {},
        "name": "defaultScene",
        "nodes": [
            0
        ]
    }]
}