{
    "accessors": [{
            "bufferView": 0,
            "componentType": 5123,
            "count": 3954,
            "max": [3953],
            "min": [0],
            "name": "buffer-0-accessor-indices-buffer-0-mesh-0",
            "type": "SCALAR"
        },
        {
            "bufferView": 2,
            "componentType": 5126,
            "count": 3954,
            "max": [2.397051095962524, 14.88922595977783, 7.696983814239502],
            "min": [-2.397051095962524, -1.999999994950485e-06, -6.990201950073242],
            "name": "buffer-0-accessor-position-buffer-0-mesh-0",
            "type": "VEC3"
        },
        {
            "bufferView": 2,
            "byteOffset": 47448,
            "componentType": 5126,
            "count": 3954,
            "max": [0.999813973903656, 0.9942399859428406, 0.9862390160560608],
            "min": [-0.999813973903656, -1, -0.9950259923934937],
            "name": "buffer-0-accessor-normal-buffer-0-mesh-0",
            "type": "VEC3"
        },
        {
            "bufferView": 1,
            "componentType": 5126,
            "count": 3954,
            "max": [0.9983980059623718, 0],
            "min": [0, -0.9872130155563354],
            "name": "buffer-0-accessor-texcoord-buffer-0-mesh-0",
            "type": "VEC2"
        },
        {
            "bufferView": 3,
            "componentType": 5126,
            "count": 0,
            "max": [0, 0, 0, 0],
            "min": [0, 0, 0, 0],
            "name": "buffer-0-accessor-color-buffer-0-mesh-0",
            "type": "VEC4"
        }
    ],
    "asset": {
        "generator": "Obj2GltfConverter",
        "version": "2.0"
    },
    "bufferViews": [{
            "buffer": 0,
            "byteLength": 7908,
            "byteStride": 0,
            "name": "buffer-0-bufferview-ushort",
            "target": 34963
        },
        {
            "buffer": 0,
            "byteLength": 31632,
            "byteOffset": 7912,
            "byteStride": 8,
            "name": "buffer-0-bufferview-vec2",
            "target": 34962
        },
        {
            "buffer": 0,
            "byteLength": 94896,
            "byteOffset": 39552,
            "byteStride": 12,
            "name": "buffer-0-bufferview-vec3",
            "target": 34962
        },
        {
            "buffer": 0,
            "byteLength": 1,
            "name": "buffer-0-bufferview-vec4"
        }
    ],
    "buffers": [{
        "byteLength": 134448,
        "name": "buffer-0",
        "uri": "deer.bin"
    }],
    "images": [{
        "mimeType": "image/png",
        "name": "MuleDeer_mat-image",
        "uri": "deer.png"
    }],
    "materials": [{
        "doubleSided": true,
        "name": "MuleDeer_mat",
        "pbrMetallicRoughness": {
            "baseColorFactor": [0.11, 0.11, 0.11, 1],
            "baseColorTexture": {
                "index": 0
            },
            "metallicFactor": 0,
            "roughnessFactor": 0.9699476628648295
        }
    }],
    "meshes": [{
        "name": "buffer-0-mesh-0",
        "primitives": [{
            "attributes": {
                "NORMAL": 2,
                "POSITION": 1,
                "TEXCOORD_0": 3
            },
            "indices": 0,
            "material": 0
        }]
    }],
    "nodes": [{
        "mesh": 0,
        "name": "node-0"
    }],
    "samplers": [{
        "name": "MuleDeer_mat-sampler",
        "wrapS": 10497,
        "wrapT": 10497
    }],
    "scenes": [{
        "name": "scene-0",
        "nodes": [0]
    }],
    "textures": [{
        "name": "MuleDeer_mat-texture",
        "sampler": 0,
        "source": 0
    }]
}